<svg width="100%" viewBox="0 0 200 200" xmlns="http://www.w3.org/2000/svg">
  <defs>
    <linearGradient id="bgGradient" x1="0%" y1="0%" x2="0%" y2="100%">
      <stop offset="0%" stop-color="#3B82F6" stop-opacity="1" />
      <stop offset="100%" stop-color="#1E3A8A" stop-opacity="1" />
    </linearGradient>
  </defs>

  <rect x="10" y="10" width="180" height="180" rx="40" ry="40" fill="url(#bgGradient)" stroke="rgba(255,255,255,0.2)" stroke-width="1.5"/>

  <g transform="translate(100, 100)" style="fill:white;stroke:none;color:white;stroke-width:1px;opacity:1">

    <circle cx="0" cy="0" r="62" fill="none" stroke="white" stroke-width="2.5" stroke-dasharray="22 8" stroke-linecap="round" opacity="0.3"/>
    <circle cx="0" cy="0" r="62" fill="none" stroke="white" stroke-width="2.5" stroke-dasharray="95 295" stroke-linecap="round" opacity="0.85"/>

    <circle cx="0" cy="0" r="27" fill="none" stroke="white" stroke-width="2"/>
    <circle cx="0" cy="0" r="13" fill="white"/>
    <circle cx="0" cy="0" r="6.5" opacity="0.2" fill="white"/>

    <circle cx="62" cy="0" r="6.5" fill="white"/>
    <circle cx="62" cy="0" r="3" fill="#3B82F6"/>

    <line x1="-22" y1="-36" x2="0" y2="-46" stroke="white" stroke-width="1.3" opacity="0.7"/>
    <line x1="0" y1="-46" x2="24" y2="-36" stroke="white" stroke-width="1.3" opacity="0.7"/>

    <circle cx="-22" cy="-36" r="3.2" fill="white"/>
    <circle cx="0" cy="-46" r="4.2" fill="white" opacity="0.8"/>
    <circle cx="24" cy="-36" r="3.2" fill="white"/>

    <path d="M 36 -24 Q 70 0 36 24" fill="none" stroke="white" stroke-width="1.6" opacity="0.4" stroke-linecap="round"/>
    <path d="M 46 -34 Q 88 0 46 34" fill="none" stroke="white" stroke-width="1.1" opacity="0.22" stroke-linecap="round"/>

  </g>
</svg>